<?xml version="1.0" encoding="utf-8"?>
<!-- Generator: Adobe Illustrator 23.0.6, SVG Export Plug-In . SVG Version: 6.00 Build 0)  -->
<svg version="1.1" id="Lager_1" xmlns="http://www.w3.org/2000/svg" xmlns:xlink="http://www.w3.org/1999/xlink" x="0px" y="0px"
	 viewBox="0 0 950 805" style="enable-background:new 0 0 950 805;" xml:space="preserve">
<style type="text/css">
	.st0{stroke:#000000;stroke-width:2;stroke-linecap:round;stroke-miterlimit:10;}
	.st1{fill:#FFFFFF;}
	.st2{fill:#EFEFEF;}
	.st3{font-family:'Tahoma';}
	.st4{font-size:12px;}
	.st5{font-family:'MyriadPro-Regular';}
	.st6{font-size:19px;}
	.st7{stroke:#000000;stroke-width:0.75;stroke-linecap:round;stroke-miterlimit:10;}
	.st8{fill:#E0E0E0;}
	.st9{fill:#AFAFAF;}
	.st10{fill:#FFFFFF;stroke:#000000;stroke-width:0.75;stroke-miterlimit:10;}
	.st11{fill:#4C4C4C;}
	.st12{fill:#A5C495;}
	.st13{font-size:10px;}
	.st14{filter:url(#Adobe_OpacityMaskFilter);}
	.st15{fill:#AED898;stroke:#000000;stroke-miterlimit:10;}
	.st16{fill:none;stroke:#000000;stroke-linecap:round;stroke-miterlimit:10;}
	.st17{fill:#333533;}
	.st18{fill:none;stroke:#FFFFFF;stroke-miterlimit:10;}
	.st19{font-size:15px;}
	.st20{fill:#FFFFFF;stroke:#FFFFFF;stroke-miterlimit:10;}
	.st21{filter:url(#Adobe_OpacityMaskFilter_1_);}
	.st22{filter:url(#Adobe_OpacityMaskFilter_2_);}
	.st23{filter:url(#Adobe_OpacityMaskFilter_3_);}
	.st24{filter:url(#Adobe_OpacityMaskFilter_4_);}
</style>
<path class="st0" d="M925.1,790H26.9c-7.1,0-12.9-5.8-12.9-12.9V425.9c0-7.1,5.8-12.9,12.9-12.9h898.3c7.1,0,12.9,5.8,12.9,12.9
	v351.3C938,784.2,932.2,790,925.1,790z"/>
<path class="st0" d="M925.1,391H26.9c-7.1,0-12.9-5.8-12.9-12.9V26.9C14,19.8,19.8,14,26.9,14h898.3c7.1,0,12.9,5.8,12.9,12.9v351.3
	C938,385.2,932.2,391,925.1,391z"/>
<g>
	<rect x="22" y="23" class="st1" width="907.1" height="360"/>
</g>
<g>
	<rect x="21" y="421" class="st1" width="907.1" height="360"/>
</g>
<g>
	<rect x="22" y="23" class="st2" width="907.1" height="55"/>
</g>
<g>
	<rect x="21" y="421" class="st2" width="907.1" height="55"/>
</g>
<g>
	<rect x="22" y="359" class="st2" width="907.1" height="24"/>
</g>
<text transform="matrix(1 0 0 1 109.6372 45.3975)" class="st3 st4">Height: 20 m</text>
<text transform="matrix(1 0 0 1 100.289 62.9075)" class="st3 st4">Distance: 34 m</text>
<line x1="576" y1="28.8" x2="576" y2="74.8"/>
<line x1="518.3" y1="28.8" x2="518.3" y2="74.8"/>
<line x1="470.2" y1="28.8" x2="470.2" y2="74.8"/>
<line x1="431.8" y1="40.3" x2="431.8" y2="63.3"/>
<line x1="393.3" y1="40.5" x2="393.3" y2="63"/>
<line x1="402.9" y1="40.5" x2="402.9" y2="63"/>
<line x1="412.5" y1="28.8" x2="412.5" y2="74.8"/>
<line x1="422.1" y1="40.3" x2="422.1" y2="63.3"/>
<text transform="matrix(1 0 0 1 436.6938 57.352)" class="st5 st6">S</text>
<line x1="451" y1="40.3" x2="451" y2="63.3"/>
<line x1="460.6" y1="40.3" x2="460.6" y2="63.3"/>
<line x1="479.8" y1="40.3" x2="479.8" y2="63.3"/>
<line x1="489.5" y1="40.3" x2="489.5" y2="63.3"/>
<line x1="499.1" y1="40.3" x2="499.1" y2="63.3"/>
<line x1="508.7" y1="40.3" x2="508.7" y2="63.3"/>
<line x1="537.5" y1="40.3" x2="537.5" y2="63.3"/>
<line x1="527.9" y1="40.3" x2="527.9" y2="63.3"/>
<text transform="matrix(1 0 0 1 540.6073 57.3521)" class="st5 st6">Ö</text>
<line x1="566.4" y1="40.3" x2="566.4" y2="63.3"/>
<line x1="556.8" y1="40.3" x2="556.8" y2="63.3"/>
<g>
	<line class="st7" x1="68" y1="39.3" x2="43" y2="39.3"/>
	<line class="st7" x1="43" y1="59" x2="68" y2="59"/>
	<line class="st7" x1="43" y1="49.7" x2="68" y2="49.7"/>
</g>
<g>
	<rect x="861" y="23" class="st2" width="68" height="360"/>
</g>
<g>
	<path class="st8" d="M877.1,377h38.8c5.6,0,10.1-4.5,10.1-10.1V38.1c0-5.6-4.5-10.1-10.1-10.1h-38.8c-5.6,0-10.1,4.5-10.1,10.1
		v328.8C867,372.5,871.5,377,877.1,377z"/>
</g>
<g>
	<path class="st9" d="M878.3,323.3h35.1c5.3,0,9.6-4.3,9.6-9.6v-40.6c0-5.3-4.3-9.6-9.6-9.6h-35.1c-5.3,0-9.6,4.3-9.6,9.6v40.6
		C868.6,319,873,323.3,878.3,323.3z"/>
</g>
<text transform="matrix(1 0 0 1 39.8308 373.9196)" class="st3 st4">30:00:00 min</text>
<circle cx="138" cy="371" r="3"/>
<circle cx="754.4" cy="371.2" r="3"/>
<line class="st10" x1="140.5" y1="370.5" x2="754" y2="371.4"/>
<g>
	<path d="M417.3,376.5l-3.2-3.2c-1.2-1.2-1.2-3.2,0-4.4l3.2-3.2c1.2-1.2,3.2-1.2,4.4,0l3.2,3.2c1.2,1.2,1.2,3.2,0,4.4l-3.2,3.2
		C420.5,377.7,418.5,377.7,417.3,376.5z"/>
</g>
<g>
	<path class="st11" d="M796.5,378H789v-13h7.5c1.4,0,2.5,1.1,2.5,2.5v8C799,376.9,797.9,378,796.5,378z"/>
</g>
<g>
	<path class="st12" d="M779.5,378h9.5v-13h-9.5c-1.4,0-2.5,1.1-2.5,2.5v8C777,376.9,778.1,378,779.5,378z"/>
</g>
<g>
	<rect x="775" y="369" class="st12" width="3" height="5"/>
</g>
<text transform="matrix(1 0 0 1 808.1927 374.8233)" class="st3 st4">65 %</text>
<g>
	<rect x="21" y="756" class="st2" width="907.1" height="24"/>
</g>
<text transform="matrix(1 0 0 1 39.6402 771.3894)" class="st3 st4">30:00:00 min</text>
<g>
	<rect x="25" y="79" class="st1" width="837.9" height="280"/>
</g>
<circle cx="137.8" cy="768.5" r="3"/>
<circle cx="754.2" cy="768.7" r="3"/>
<line class="st10" x1="140.3" y1="768" x2="753.8" y2="768.9"/>
<g>
	<path d="M417.1,774l-3.2-3.2c-1.2-1.2-1.2-3.2,0-4.4l3.2-3.2c1.2-1.2,3.2-1.2,4.4,0l3.2,3.2c1.2,1.2,1.2,3.2,0,4.4l-3.2,3.2
		C420.3,775.2,418.3,775.2,417.1,774z"/>
</g>
<g>
	<path class="st11" d="M796.3,775.5h-7.5v-13h7.5c1.4,0,2.5,1.1,2.5,2.5v8C798.8,774.4,797.7,775.5,796.3,775.5z"/>
</g>
<g>
	<path class="st12" d="M779.3,775.5h9.5v-13h-9.5c-1.4,0-2.5,1.1-2.5,2.5v8C776.8,774.4,777.9,775.5,779.3,775.5z"/>
</g>
<g>
	<rect x="774.8" y="766.5" class="st12" width="3" height="5"/>
</g>
<text transform="matrix(1 0 0 1 808.0021 772.2932)" class="st3 st4">65 %</text>
<text transform="matrix(1 0 0 1 331.8555 473.3008)" class="st3 st13">Object</text>
<defs>
	<filter id="Adobe_OpacityMaskFilter" filterUnits="userSpaceOnUse" x="-9.7" y="-138.6" width="953" height="714.7">
		<feColorMatrix  type="matrix" values="1 0 0 0 0  0 1 0 0 0  0 0 1 0 0  0 0 0 1 0"/>
	</filter>
</defs>
<mask maskUnits="userSpaceOnUse" x="-9.7" y="-138.6" width="953" height="714.7" id="SVGID_1_">
	<g class="st14">
		<g>
			<rect x="20.5" y="78.6" class="st1" width="842.8" height="281.6"/>
		</g>
	</g>
</mask>
<g transform="matrix(1 0 0 1 0 0)" style="opacity:0.94;mask:url(#SVGID_1_);">
	
		<image style="overflow:visible;" width="4000" height="3000" xlink:href="../../Downloads/DJI_0037.JPG"  transform="matrix(0.2383 0 0 0.2382 -9.6506 -138.6024)">
	</image>
</g>
<circle class="st15" cx="426.4" cy="441.1" r="16.3"/>
<text transform="matrix(1 0 0 1 403.3667 473.3011)" class="st3 st13">Walk path</text>
<text transform="matrix(1 0 0 1 488.8766 473.3012)" class="st3 st13">Row lines</text>
<text transform="matrix(1 0 0 1 567.388 473.3003)" class="st3 st13">SOS spot</text>
<path class="st16" d="M113.1,435.1l-10.4,10.1c-0.4,0.4-0.5,1.1-0.1,1.5l10.1,12.3"/>
<g>
	<circle class="st17" cx="63.4" cy="204" r="22.6"/>
</g>
<path class="st18" d="M70.2,203c4.1,1.2,6.8,3.4,6.8,6c-0.1,3.7-5.9,6.6-13.2,6.5s-13-3.2-13-6.9c0-2.7,3.1-4.9,7.4-5.9"/>
<polyline class="st18" points="53.3,199.5 63.9,207.4 74.7,199.8 "/>
<line class="st18" x1="63.9" y1="207.8" x2="64.2" y2="189.4"/>
<g>
	<circle class="st17" cx="814" cy="204" r="22.6"/>
</g>
<g>
	<path class="st1" d="M815.1,190c4,0,6.9,2.4,6.9,5.9c0,1.8-2.7,6.8-5.1,11.2c-1.7,3.1-3.4,6.2-4.5,8.8c-1.7-3.6-4.9-16.9-4.2-19.6
		C808.7,194.3,810.4,190,815.1,190 M815.1,189c-4.4,0-6.9,3.2-7.9,6.9c-0.9,3.4,3.5,21.6,5.3,21.6c0.2,0,0.3-0.1,0.4-0.4
		c2.3-6.1,10.1-17.7,10.1-21.2C823,191.6,819.5,189,815.1,189L815.1,189z"/>
</g>
<text transform="matrix(1 0 0 1 809.2305 203.1685)" class="st1 st3 st19">#</text>
<line class="st20" x1="807.4" y1="219" x2="816.7" y2="219"/>
<defs>
	<filter id="Adobe_OpacityMaskFilter_1_" filterUnits="userSpaceOnUse" x="802" y="247" width="168.1" height="94.6">
		<feColorMatrix  type="matrix" values="1 0 0 0 0  0 1 0 0 0  0 0 1 0 0  0 0 0 1 0"/>
	</filter>
</defs>
<mask maskUnits="userSpaceOnUse" x="802" y="247" width="168.1" height="94.6" id="SVGID_2_">
	<g class="st21">
		<rect x="872.5" y="266.5" class="st1" width="48" height="53"/>
	</g>
</mask>
<g transform="matrix(1 0 0 1 0 0)" style="mask:url(#SVGID_2_);">
	
		<image style="overflow:visible;" width="2758" height="1552" xlink:href="../../Downloads/Satel.png"  transform="matrix(6.094071e-02 0 0 6.094071e-02 802 247)">
	</image>
</g>
<image style="overflow:visible;" width="2865" height="2865" xlink:href="../../Downloads/fallentree.png"  transform="matrix(1.326353e-02 0 0 1.361257e-02 329 423)">
</image>
<image style="overflow:visible;" width="2865" height="2865" xlink:href="../../Downloads/gångstråk.png"  transform="matrix(1.396161e-02 0 0 1.396161e-02 405 423)">
</image>
<image style="overflow:visible;" width="2865" height="2865" xlink:href="../../Downloads/radrikning.png"  transform="matrix(1.429131e-02 0 0 1.429131e-02 489 423)">
</image>
<image style="overflow:visible;" width="2865" height="2865" xlink:href="../../Downloads/sosmarkering.png"  transform="matrix(1.291449e-02 0 0 1.291449e-02 568 424)">
</image>
<defs>
	<filter id="Adobe_OpacityMaskFilter_2_" filterUnits="userSpaceOnUse" x="-7.7" y="259.2" width="947.5" height="710.7">
		<feColorMatrix  type="matrix" values="1 0 0 0 0  0 1 0 0 0  0 0 1 0 0  0 0 0 1 0"/>
	</filter>
</defs>
<mask maskUnits="userSpaceOnUse" x="-7.7" y="259.2" width="947.5" height="710.7" id="SVGID_3_">
	<g class="st22">
		<g>
			<rect x="22.3" y="475.2" class="st1" width="906" height="280"/>
		</g>
	</g>
</mask>
<g transform="matrix(1 0 0 1 4.768372e-07 0)" style="mask:url(#SVGID_3_);">
	
		<image style="overflow:visible;" width="4000" height="3000" xlink:href="../../Downloads/DJI_0037.JPG"  transform="matrix(0.2369 0 0 0.2369 -7.7229 259.2169)">
	</image>
</g>
<g>
	<path class="st9" d="M878.3,245.2h35.1c5.3,0,9.6-4.3,9.6-9.6v-40.6c0-5.3-4.3-9.6-9.6-9.6h-35.1c-5.3,0-9.6,4.3-9.6,9.6v40.6
		C868.6,240.9,873,245.2,878.3,245.2z"/>
</g>
<g>
	<path class="st9" d="M878.3,167h35.1c5.3,0,9.6-4.3,9.6-9.6v-40.6c0-5.3-4.3-9.6-9.6-9.6h-35.1c-5.3,0-9.6,4.3-9.6,9.6v40.6
		C868.6,162.7,873,167,878.3,167z"/>
</g>
<defs>
	<filter id="Adobe_OpacityMaskFilter_3_" filterUnits="userSpaceOnUse" x="826.9" y="99.2" width="129.8" height="73">
		<feColorMatrix  type="matrix" values="1 0 0 0 0  0 1 0 0 0  0 0 1 0 0  0 0 0 1 0"/>
	</filter>
</defs>
<mask maskUnits="userSpaceOnUse" x="826.9" y="99.2" width="129.8" height="73" id="SVGID_4_">
	<g class="st23">
		<rect x="871.9" y="110.2" class="st1" width="48" height="53"/>
	</g>
</mask>
<g transform="matrix(1 0 0 1 -6.103516e-05 7.629395e-06)" style="mask:url(#SVGID_4_);">
	
		<image style="overflow:visible;" width="3087" height="1736" xlink:href="../../Downloads/Ortofoto.png"  transform="matrix(4.205069e-02 0 0 4.205069e-02 826.8915 99.241)">
	</image>
</g>
<defs>
	<filter id="Adobe_OpacityMaskFilter_4_" filterUnits="userSpaceOnUse" x="826" y="172" width="142.7" height="80.2">
		<feColorMatrix  type="matrix" values="1 0 0 0 0  0 1 0 0 0  0 0 1 0 0  0 0 0 1 0"/>
	</filter>
</defs>
<mask maskUnits="userSpaceOnUse" x="826" y="172" width="142.7" height="80.2" id="SVGID_5_">
	<g class="st24">
		<rect x="872" y="189" class="st1" width="48" height="53"/>
	</g>
</mask>
<g style="mask:url(#SVGID_5_);">
	
		<image style="overflow:visible;" width="2125" height="1195" xlink:href="../../Downloads/Satel + info.png"  transform="matrix(6.713266e-02 0 0 6.713266e-02 826 172)">
	</image>
</g>
<g>
	<line class="st7" x1="68.1" y1="437.1" x2="43.1" y2="437.1"/>
	<line class="st7" x1="43.1" y1="456.8" x2="68.1" y2="456.8"/>
	<line class="st7" x1="43.1" y1="447.4" x2="68.1" y2="447.4"/>
</g>
</svg>
