<svg xmlns="http://www.w3.org/2000/svg" viewBox="0 0 816.94 337.68"><defs><style>.cls-1,.cls-10,.cls-11,.cls-12,.cls-2,.cls-3,.cls-30,.cls-31,.cls-32,.cls-33,.cls-34,.cls-4{fill:none;}.cls-1{stroke:#e9e8ea;stroke-width:8px;}.cls-1,.cls-10,.cls-11,.cls-12,.cls-13,.cls-14,.cls-2,.cls-3,.cls-30,.cls-31,.cls-32,.cls-33,.cls-34,.cls-4{stroke-miterlimit:10;}.cls-2,.cls-3,.cls-31,.cls-33{stroke:#ff3b5c;}.cls-11,.cls-13,.cls-2,.cls-4{stroke-width:6px;}.cls-12,.cls-14,.cls-3{stroke-width:2px;}.cls-32,.cls-4{stroke:#30abbf;}.cls-5{fill:#a7d4d8;}.cls-6{fill:#59999b;}.cls-7{fill:#d8eaef;}.cls-8{fill:#e3e82e;}.cls-9{fill:#fff;}.cls-10,.cls-11,.cls-12,.cls-30{stroke:#000;}.cls-13,.cls-14{fill:#fffdfd;stroke:#00c617;}.cls-15,.cls-16,.cls-19,.cls-22{font-size:18px;font-family:MyriadPro-Regular, Myriad Pro;}.cls-16{fill:#ff3b5c;}.cls-17{letter-spacing:0em;}.cls-18{letter-spacing:0em;}.cls-19{fill:#238f9b;}.cls-20{letter-spacing:-0.01em;}.cls-21{letter-spacing:0.01em;}.cls-22{fill:#06b211;}.cls-23{letter-spacing:0em;}.cls-24{letter-spacing:0.01em;}.cls-25{letter-spacing:-0.01em;}.cls-26{letter-spacing:-0.01em;}.cls-27{letter-spacing:-0.01em;}.cls-28{letter-spacing:0em;}.cls-29{letter-spacing:0.01em;}.cls-30,.cls-31,.cls-32{stroke-width:0.75px;}.cls-34{stroke:#238f9b;}</style></defs><title>Resurs 3</title><g id="Lager_2" data-name="Lager 2"><g id="Layer_1" data-name="Layer 1"><path class="cls-1" d="M419.36,41.89l7.07,8.53a1.75,1.75,0,0,1-.13,2.4l-7.62,7.62"/><path class="cls-1" d="M639.93,41.89,647,50.42a1.74,1.74,0,0,1-.14,2.4l-7.62,7.62"/><path class="cls-1" d="M172.78,41.89l7.08,8.53a1.76,1.76,0,0,1-.14,2.4l-7.62,7.62"/><circle class="cls-2" cx="300.88" cy="54.86" r="43.81"/><circle class="cls-3" cx="297.16" cy="49.42" r="18.73"/><line class="cls-3" x1="310.27" y1="62.53" x2="325.64" y2="75.63"/><circle class="cls-4" cx="547.79" cy="54.54" r="43.81"/><rect class="cls-5" x="516.5" y="27.97" width="63.04" height="53.43"/><rect class="cls-6" x="516.5" y="27.97" width="62.73" height="4.17"/><rect class="cls-7" x="516.5" y="56.13" width="63.04" height="25.26"/><rect class="cls-8" x="523.53" y="50.05" width="10.57" height="2.22"/><rect class="cls-9" x="536.36" y="50.05" width="10.57" height="2.22"/><line class="cls-10" x1="548.15" y1="68.11" x2="574.41" y2="68.11"/><line class="cls-10" x1="548.15" y1="60.94" x2="574.41" y2="60.94"/><line class="cls-10" x1="548.15" y1="64.52" x2="574.41" y2="64.52"/><line class="cls-10" x1="548.15" y1="71.69" x2="574.41" y2="71.69"/><line class="cls-10" x1="548.15" y1="75.27" x2="574.41" y2="75.27"/><line class="cls-10" x1="548.84" y1="78.85" x2="575.05" y2="78.85"/><line class="cls-10" x1="519.72" y1="71.82" x2="545.93" y2="71.82"/><line class="cls-10" x1="519.72" y1="64.75" x2="545.93" y2="64.75"/><line class="cls-10" x1="519.72" y1="68.29" x2="545.93" y2="68.29"/><line class="cls-10" x1="519.72" y1="75.32" x2="545.93" y2="75.32"/><line class="cls-10" x1="519.72" y1="78.85" x2="545.93" y2="78.85"/><circle class="cls-11" cx="55.4" cy="54.54" r="43.81"/><line class="cls-12" x1="30.43" y1="32.28" x2="80.37" y2="32.28"/><line class="cls-12" x1="30.43" y1="40.62" x2="80.37" y2="40.62"/><line class="cls-12" x1="30.43" y1="48.92" x2="80.37" y2="48.92"/><line class="cls-12" x1="30.43" y1="57.22" x2="80.37" y2="57.22"/><line class="cls-12" x1="30.43" y1="65.57" x2="80.37" y2="65.57"/><line class="cls-12" x1="30.43" y1="73.87" x2="80.37" y2="73.87"/><circle class="cls-13" cx="770.12" cy="46.81" r="43.81"/><polyline class="cls-14" points="753.16 48.4 763.05 59.6 792.8 33.66"/><text class="cls-15" transform="translate(21.69 130.82)">planning</text><text class="cls-16" transform="translate(245.35 130.82)">d<tspan class="cls-17" x="10.15" y="0">a</tspan><tspan x="18.76" y="0">ta g</tspan><tspan class="cls-17" x="47.27" y="0">a</tspan><tspan x="55.87" y="0">the</tspan><tspan class="cls-18" x="80.84" y="0">r</tspan><tspan x="86.79" y="0">ing</tspan></text><text class="cls-19" transform="translate(505.67 130.82)">p<tspan class="cls-20" x="10.24" y="0">r</tspan><tspan x="15.95" y="0">odu</tspan><tspan class="cls-21" x="45.9" y="0">c</tspan><tspan x="54.2" y="0">tion</tspan></text><text class="cls-22" transform="translate(738.24 127.82)"><tspan class="cls-17">v</tspan><tspan x="8.59" y="0">alid</tspan><tspan class="cls-17" x="35.87" y="0">a</tspan><tspan class="cls-23" x="44.48" y="0">tion </tspan></text><text class="cls-15" transform="translate(10.3 180.82)">p<tspan class="cls-20" x="10.24" y="0">r</tspan><tspan x="15.95" y="0">ojet plan</tspan></text><text class="cls-15" transform="translate(6.3 239.3)">p<tspan class="cls-20" x="10.24" y="0">r</tspan><tspan x="15.95" y="0">oje</tspan><tspan class="cls-24" x="39.22" y="0">c</tspan><tspan x="47.52" y="0">t goal</tspan></text><text class="cls-16" transform="translate(260.02 181.82)"><tspan class="cls-25">w</tspan><tspan x="13.07" y="0">o</tspan><tspan class="cls-18" x="22.95" y="0">r</tspan><tspan x="28.91" y="0">kshops</tspan></text><text class="cls-16" transform="translate(163.5 239.3)">futu<tspan class="cls-25" x="31.05" y="0">r</tspan><tspan x="36.76" y="0">e </tspan><tspan class="cls-25" x="49.59" y="0">w</tspan><tspan x="62.66" y="0">o</tspan><tspan class="cls-18" x="72.54" y="0">r</tspan><tspan x="78.5" y="0">kshop</tspan></text><text class="cls-16" transform="translate(324.27 239.3)"><tspan class="cls-26">c</tspan><tspan x="7.96" y="0">odesi</tspan><tspan class="cls-27" x="48.35" y="0">g</tspan><tspan class="cls-28" x="58.3" y="0">n </tspan></text><text class="cls-16" transform="translate(223.92 299.3)">anal<tspan class="cls-26" x="31.59" y="0">y</tspan><tspan x="39.96" y="0">sis</tspan></text><text class="cls-16" transform="translate(330.69 300.3)">anal<tspan class="cls-26" x="31.59" y="0">y</tspan><tspan x="39.96" y="0">sis</tspan></text><text class="cls-19" transform="translate(510.08 181.82)">p<tspan class="cls-20" x="10.24" y="0">r</tspan><tspan x="15.95" y="0">o</tspan><tspan class="cls-26" x="25.83" y="0">t</tspan><tspan x="31.68" y="0">o</tspan><tspan class="cls-29" x="41.56" y="0">t</tspan><tspan x="47.68" y="0">ype</tspan></text><text class="cls-19" transform="translate(465.54 240.4)">app definition &amp; goals</text><text class="cls-19" transform="translate(574.33 299.3)">ske<tspan class="cls-27" x="24.59" y="0">t</tspan><tspan x="30.44" y="0">ches </tspan></text><rect class="cls-30" x="4.38" y="161.23" width="94" height="31" rx="11.28"/><rect class="cls-30" x="0.38" y="220.23" width="102" height="31" rx="11.28"/><rect class="cls-31" x="253.89" y="160.23" width="94" height="31" rx="11.28"/><rect class="cls-32" x="498.89" y="162.23" width="94" height="31" rx="11.28"/><rect class="cls-31" x="153.89" y="220.23" width="139" height="31" rx="11.28"/><rect class="cls-31" x="309.89" y="220.23" width="100" height="31" rx="11.28"/><rect class="cls-31" x="210.89" y="278.23" width="83" height="31" rx="11.28"/><rect class="cls-31" x="311.89" y="278.23" width="96" height="31" rx="11.28"/><rect class="cls-32" x="455.02" y="220.23" width="183.87" height="31" rx="11.28"/><rect class="cls-32" x="454.59" y="278.23" width="81.3" height="31" rx="11.28"/><rect class="cls-32" x="562.05" y="278.23" width="97.3" height="31" rx="11.28"/><text class="cls-19" transform="translate(459.06 299.87)">use cases</text><line class="cls-10" x1="51.38" y1="191.73" x2="51.38" y2="219.73"/><line class="cls-33" x1="280.39" y1="190.73" x2="280.39" y2="218.73"/><line class="cls-33" x1="318" y1="192.68" x2="318" y2="220.68"/><line class="cls-33" x1="283.2" y1="250.71" x2="283.2" y2="278.71"/><line class="cls-33" x1="318.81" y1="251.66" x2="318.81" y2="279.66"/><line class="cls-34" x1="567.81" y1="250.66" x2="567.81" y2="278.66"/><line class="cls-34" x1="546" y1="192.68" x2="546" y2="220.68"/><line class="cls-34" x1="526" y1="251.68" x2="526" y2="279.68"/><line class="cls-34" x1="570" y1="309.68" x2="570" y2="337.68"/></g></g></svg>