<svg xmlns="http://www.w3.org/2000/svg" viewBox="0 0 836.48 425.65"><defs><style>.cls-1,.cls-10,.cls-11,.cls-12,.cls-2,.cls-3,.cls-34,.cls-35,.cls-36,.cls-37,.cls-38,.cls-4,.cls-41{fill:none;}.cls-1{stroke:#e9e8ea;stroke-width:8px;}.cls-1,.cls-10,.cls-11,.cls-12,.cls-13,.cls-14,.cls-2,.cls-3,.cls-34,.cls-35,.cls-36,.cls-37,.cls-38,.cls-4,.cls-41{stroke-miterlimit:10;}.cls-2,.cls-3,.cls-35,.cls-37{stroke:#ff3b5c;}.cls-11,.cls-13,.cls-2,.cls-4{stroke-width:6px;}.cls-12,.cls-14,.cls-3{stroke-width:2px;}.cls-36,.cls-4{stroke:#30abbf;}.cls-5{fill:#a7d4d8;}.cls-6{fill:#59999b;}.cls-7{fill:#d8eaef;}.cls-8{fill:#e3e82e;}.cls-9{fill:#fff;}.cls-10,.cls-11,.cls-12,.cls-34{stroke:#000;}.cls-13,.cls-14{fill:#fffdfd;stroke:#00c617;}.cls-15,.cls-16,.cls-19,.cls-22{font-size:18px;font-family:MyriadPro-Regular, Myriad Pro;}.cls-16{fill:#ff3b5c;}.cls-17{letter-spacing:0em;}.cls-18{letter-spacing:0em;}.cls-19{fill:#238f9b;}.cls-20{letter-spacing:-0.01em;}.cls-21{letter-spacing:0.01em;}.cls-22{fill:#06b211;}.cls-23{letter-spacing:0em;}.cls-24{letter-spacing:-0.01em;}.cls-25{letter-spacing:0.03em;}.cls-26{letter-spacing:-0.04em;}.cls-27{letter-spacing:0em;}.cls-28{letter-spacing:-0.01em;}.cls-29{letter-spacing:0em;}.cls-30{letter-spacing:0.01em;}.cls-31{letter-spacing:-0.01em;}.cls-32{letter-spacing:0em;}.cls-33{letter-spacing:0em;}.cls-34,.cls-35,.cls-36{stroke-width:0.75px;}.cls-38{stroke:#238f9b;}.cls-39{letter-spacing:0em;}.cls-40{letter-spacing:0.01em;}.cls-41{stroke:#06b211;}</style></defs><title>Resurs 2</title><g id="Lager_2" data-name="Lager 2"><g id="Layer_1" data-name="Layer 1"><path class="cls-1" d="M427.84,41.89l7.08,8.53a1.74,1.74,0,0,1-.14,2.4l-7.62,7.62"/><path class="cls-1" d="M648.42,41.89l7.07,8.53a1.75,1.75,0,0,1-.13,2.4l-7.62,7.62"/><path class="cls-1" d="M181.27,41.89l7.07,8.53a1.75,1.75,0,0,1-.13,2.4l-7.62,7.62"/><circle class="cls-2" cx="309.37" cy="54.86" r="43.81"/><circle class="cls-3" cx="305.65" cy="49.42" r="18.73"/><line class="cls-3" x1="318.75" y1="62.53" x2="334.13" y2="75.63"/><circle class="cls-4" cx="556.28" cy="54.54" r="43.81"/><rect class="cls-5" x="524.98" y="27.97" width="63.04" height="53.43"/><rect class="cls-6" x="524.98" y="27.97" width="62.73" height="4.17"/><rect class="cls-7" x="524.98" y="56.13" width="63.04" height="25.26"/><rect class="cls-8" x="532.01" y="50.05" width="10.57" height="2.22"/><rect class="cls-9" x="544.85" y="50.05" width="10.57" height="2.22"/><line class="cls-10" x1="556.64" y1="68.11" x2="582.9" y2="68.11"/><line class="cls-10" x1="556.64" y1="60.94" x2="582.9" y2="60.94"/><line class="cls-10" x1="556.64" y1="64.52" x2="582.9" y2="64.52"/><line class="cls-10" x1="556.64" y1="71.69" x2="582.9" y2="71.69"/><line class="cls-10" x1="556.64" y1="75.27" x2="582.9" y2="75.27"/><line class="cls-10" x1="557.32" y1="78.85" x2="583.53" y2="78.85"/><line class="cls-10" x1="528.2" y1="71.82" x2="554.42" y2="71.82"/><line class="cls-10" x1="528.2" y1="64.75" x2="554.42" y2="64.75"/><line class="cls-10" x1="528.2" y1="68.29" x2="554.42" y2="68.29"/><line class="cls-10" x1="528.2" y1="75.32" x2="554.42" y2="75.32"/><line class="cls-10" x1="528.2" y1="78.85" x2="554.42" y2="78.85"/><circle class="cls-11" cx="63.88" cy="54.54" r="43.81"/><line class="cls-12" x1="38.92" y1="32.28" x2="88.85" y2="32.28"/><line class="cls-12" x1="38.92" y1="40.62" x2="88.85" y2="40.62"/><line class="cls-12" x1="38.92" y1="48.92" x2="88.85" y2="48.92"/><line class="cls-12" x1="38.92" y1="57.22" x2="88.85" y2="57.22"/><line class="cls-12" x1="38.92" y1="65.57" x2="88.85" y2="65.57"/><line class="cls-12" x1="38.92" y1="73.87" x2="88.85" y2="73.87"/><circle class="cls-13" cx="778.61" cy="46.81" r="43.81"/><polyline class="cls-14" points="761.65 48.4 771.53 59.6 801.29 33.66"/><text class="cls-15" transform="translate(30.18 130.82)">planning</text><text class="cls-16" transform="translate(253.84 130.82)">d<tspan class="cls-17" x="10.15" y="0">a</tspan><tspan x="18.76" y="0">ta g</tspan><tspan class="cls-17" x="47.27" y="0">a</tspan><tspan x="55.87" y="0">the</tspan><tspan class="cls-18" x="80.84" y="0">r</tspan><tspan x="86.79" y="0">ing</tspan></text><text class="cls-19" transform="translate(514.16 130.82)">p<tspan class="cls-20" x="10.24" y="0">r</tspan><tspan x="15.95" y="0">odu</tspan><tspan class="cls-21" x="45.9" y="0">c</tspan><tspan x="54.2" y="0">tion</tspan></text><text class="cls-22" transform="translate(746.72 127.82)"><tspan class="cls-17">v</tspan><tspan x="8.59" y="0">alid</tspan><tspan class="cls-17" x="35.87" y="0">a</tspan><tspan class="cls-23" x="44.48" y="0">tion </tspan></text><text class="cls-15" transform="translate(24.72 180.82)">p<tspan class="cls-20" x="10.24" y="0">r</tspan><tspan x="15.95" y="0">ojetplan</tspan></text><text class="cls-15" transform="translate(5.8 241.3)">i<tspan class="cls-17" x="4.21" y="0">n</tspan><tspan class="cls-24" x="14.13" y="0">t</tspan><tspan x="19.98" y="0">e</tspan><tspan class="cls-25" x="29" y="0">r</tspan><tspan x="35.33" y="0">view </tspan><tspan class="cls-26" x="74.28" y="0">w</tspan><tspan class="cls-27" x="86.83" y="0">.</tspan><tspan x="0" y="21.6">p</tspan><tspan class="cls-20" x="10.24" y="21.6">r</tspan><tspan x="15.95" y="21.6">odu</tspan><tspan class="cls-21" x="45.9" y="21.6">c</tspan><tspan x="54.2" y="21.6">t </tspan><tspan class="cls-28" x="63.97" y="21.6">o</tspan><tspan x="73.73" y="21.6">wner</tspan></text><text class="cls-16" transform="translate(272.44 181.82)">field study</text><text class="cls-16" transform="translate(263.1 239.3)">i<tspan class="cls-17" x="4.21" y="0">n</tspan><tspan class="cls-24" x="14.13" y="0">t</tspan><tspan x="19.98" y="0">e</tspan><tspan class="cls-25" x="29" y="0">r</tspan><tspan x="35.33" y="0">view </tspan><tspan class="cls-26" x="74.28" y="0">w</tspan><tspan class="cls-27" x="86.83" y="0">. </tspan><tspan x="0" y="21.6">obse</tspan><tspan class="cls-25" x="36.27" y="21.6">r</tspan><tspan class="cls-29" x="42.61" y="21.6">va</tspan><tspan x="59.79" y="21.6">tions</tspan></text><text class="cls-16" transform="translate(252.36 312.3)">affini<tspan class="cls-30" x="37.55" y="0">t</tspan><tspan x="43.67" y="0">y dia</tspan><tspan class="cls-31" x="79" y="0">g</tspan><tspan class="cls-32" x="88.95" y="0">r</tspan><tspan x="94.75" y="0">am</tspan></text><text class="cls-19" transform="translate(522.48 181.82)">p<tspan class="cls-20" x="10.24" y="0">r</tspan><tspan x="15.95" y="0">o</tspan><tspan class="cls-31" x="25.83" y="0">t</tspan><tspan x="31.68" y="0">o</tspan><tspan class="cls-30" x="41.56" y="0">t</tspan><tspan x="47.68" y="0">ype</tspan></text><text class="cls-19" transform="translate(527.87 240.4)">ske<tspan class="cls-24" x="24.59" y="0">t</tspan><tspan x="30.44" y="0">ches</tspan></text><text class="cls-19" transform="translate(522.22 299.3)">wi<tspan class="cls-20" x="17.46" y="0">r</tspan><tspan class="cls-23" x="23.17" y="0">ef</tspan><tspan class="cls-32" x="37.44" y="0">r</tspan><tspan class="cls-27" x="43.24" y="0">ame</tspan></text><text class="cls-19" transform="translate(525.81 356.96)">moc<tspan class="cls-33" x="32.96" y="0">k</tspan><tspan x="41.47" y="0">ups</tspan></text><rect class="cls-34" x="14.38" y="161.23" width="94" height="31" rx="11.28"/><rect class="cls-34" x="0.38" y="220.23" width="119.96" height="55.79" rx="11.28"/><rect class="cls-35" x="264.58" y="160.23" width="94" height="31" rx="11.28"/><rect class="cls-36" x="513.19" y="162.23" width="94" height="31" rx="11.28"/><rect class="cls-35" x="253.6" y="220.23" width="115.96" height="45.79" rx="11.28"/><rect class="cls-35" x="247.1" y="292.23" width="128.96" height="31" rx="11.28"/><rect class="cls-36" x="512.28" y="220.23" width="95.83" height="31" rx="11.28"/><rect class="cls-36" x="511.54" y="278.23" width="97.3" height="31" rx="11.28"/><rect class="cls-36" x="511.54" y="337.09" width="97.3" height="31" rx="11.28"/><line class="cls-10" x1="57.88" y1="191.73" x2="57.88" y2="219.73"/><line class="cls-37" x1="311.58" y1="192.68" x2="311.58" y2="220.68"/><line class="cls-37" x1="311.58" y1="265.66" x2="311.58" y2="293.66"/><line class="cls-38" x1="560.19" y1="250.66" x2="560.19" y2="278.66"/><line class="cls-38" x1="560.19" y1="192.68" x2="560.19" y2="220.68"/><line class="cls-38" x1="560.19" y1="309.68" x2="560.19" y2="337.68"/><text class="cls-19" transform="translate(480.86 414.15)">i<tspan class="cls-17" x="4.21" y="0">n</tspan><tspan class="cls-24" x="14.13" y="0">t</tspan><tspan x="19.98" y="0">e</tspan><tspan class="cls-39" x="29" y="0">r</tspan><tspan x="34.79" y="0">a</tspan><tspan class="cls-40" x="43.47" y="0">c</tspan><tspan x="51.77" y="0">ti</tspan><tspan class="cls-20" x="61.94" y="0">v</tspan><tspan class="cls-23" x="70.42" y="0">e p</tspan><tspan class="cls-20" x="93.49" y="0">r</tspan><tspan x="99.2" y="0">o</tspan><tspan class="cls-31" x="109.08" y="0">t</tspan><tspan x="114.93" y="0">o</tspan><tspan class="cls-30" x="124.81" y="0">t</tspan><tspan x="130.93" y="0">ype</tspan></text><rect class="cls-36" x="474.19" y="394.27" width="172" height="31" rx="11.28"/><line class="cls-38" x1="560.19" y1="367.52" x2="560.19" y2="395.52"/><text class="cls-22" transform="translate(749.22 182.26)">e<tspan class="cls-29" x="9.02" y="0">v</tspan><tspan class="cls-27" x="17.6" y="0">alu</tspan><tspan class="cls-17" x="40.45" y="0">a</tspan><tspan x="49.05" y="0">tion</tspan></text><text class="cls-22" transform="translate(753.67 240.84)">user <tspan class="cls-24" x="35.77" y="0">t</tspan><tspan x="41.62" y="0">est</tspan></text><rect class="cls-41" x="740.02" y="162.67" width="94" height="31" rx="11.28"/><rect class="cls-41" x="740.16" y="220.67" width="95.83" height="31" rx="11.28"/><line class="cls-41" x1="787.14" y1="193.12" x2="787.14" y2="221.12"/><text class="cls-15" transform="translate(390.74 195.41)"><tspan xml:space="preserve">    </tspan></text></g></g></svg>