<svg xmlns="http://www.w3.org/2000/svg" viewBox="0 0 808.35 449.22"><defs><style>.cls-1,.cls-10,.cls-11,.cls-12,.cls-2,.cls-26,.cls-27,.cls-28,.cls-3,.cls-38,.cls-4{fill:none;}.cls-1{stroke:#e9e8ea;stroke-width:8px;}.cls-1,.cls-10,.cls-11,.cls-12,.cls-13,.cls-14,.cls-2,.cls-26,.cls-27,.cls-28,.cls-3,.cls-38,.cls-4{stroke-miterlimit:10;}.cls-2,.cls-26,.cls-3,.cls-38{stroke:#ff3b5c;}.cls-11,.cls-13,.cls-2,.cls-4{stroke-width:6px;}.cls-12,.cls-14,.cls-3{stroke-width:2px;}.cls-27,.cls-4{stroke:#30abbf;}.cls-5{fill:#a7d4d8;}.cls-6{fill:#59999b;}.cls-7{fill:#d8eaef;}.cls-8{fill:#e3e82e;}.cls-9{fill:#fff;}.cls-10,.cls-11,.cls-12{stroke:#000;}.cls-13,.cls-14{fill:#fffdfd;stroke:#00c617;}.cls-15,.cls-16,.cls-19,.cls-22{font-size:18px;}.cls-15,.cls-16,.cls-19,.cls-22,.cls-35{font-family:MyriadPro-Regular, Myriad Pro;}.cls-16,.cls-35{fill:#ff3b5c;}.cls-17{letter-spacing:0em;}.cls-18{letter-spacing:0em;}.cls-19{fill:#238f9b;}.cls-20{letter-spacing:-0.01em;}.cls-21{letter-spacing:0.01em;}.cls-22{fill:#06b211;}.cls-23{letter-spacing:0em;}.cls-24{letter-spacing:-0.01em;}.cls-25{letter-spacing:-0.01em;}.cls-26,.cls-27{stroke-width:0.75px;}.cls-28{stroke:#238f9b;}.cls-29{letter-spacing:-0.01em;}.cls-30{letter-spacing:-0.04em;}.cls-31{letter-spacing:0em;}.cls-32{letter-spacing:-0.01em;}.cls-33{letter-spacing:0em;}.cls-34{letter-spacing:0em;}.cls-35{font-size:16.73px;}.cls-36{letter-spacing:-0.01em;}.cls-37{letter-spacing:0em;}.cls-39{letter-spacing:0em;}.cls-40{letter-spacing:0.01em;}</style></defs><title>Resurs 5</title><g id="Lager_2" data-name="Lager 2"><g id="Layer_1" data-name="Layer 1"><path class="cls-1" d="M410.77,41.89l7.08,8.53a1.76,1.76,0,0,1-.14,2.4l-7.62,7.62"/><path class="cls-1" d="M631.35,41.89l7.07,8.53a1.75,1.75,0,0,1-.13,2.4l-7.62,7.62"/><path class="cls-1" d="M164.19,41.89l7.08,8.53a1.74,1.74,0,0,1-.14,2.4l-7.62,7.62"/><circle class="cls-2" cx="292.29" cy="54.86" r="43.81"/><circle class="cls-3" cx="288.58" cy="49.42" r="18.73"/><line class="cls-3" x1="301.68" y1="62.53" x2="317.06" y2="75.63"/><circle class="cls-4" cx="539.21" cy="54.54" r="43.81"/><rect class="cls-5" x="507.91" y="27.97" width="63.04" height="53.43"/><rect class="cls-6" x="507.91" y="27.97" width="62.73" height="4.17"/><rect class="cls-7" x="507.91" y="56.13" width="63.04" height="25.26"/><rect class="cls-8" x="514.94" y="50.05" width="10.57" height="2.22"/><rect class="cls-9" x="527.78" y="50.05" width="10.57" height="2.22"/><line class="cls-10" x1="539.57" y1="68.11" x2="565.83" y2="68.11"/><line class="cls-10" x1="539.57" y1="60.94" x2="565.83" y2="60.94"/><line class="cls-10" x1="539.57" y1="64.52" x2="565.83" y2="64.52"/><line class="cls-10" x1="539.57" y1="71.69" x2="565.83" y2="71.69"/><line class="cls-10" x1="539.57" y1="75.27" x2="565.83" y2="75.27"/><line class="cls-10" x1="540.25" y1="78.85" x2="566.46" y2="78.85"/><line class="cls-10" x1="511.13" y1="71.82" x2="537.35" y2="71.82"/><line class="cls-10" x1="511.13" y1="64.75" x2="537.35" y2="64.75"/><line class="cls-10" x1="511.13" y1="68.29" x2="537.35" y2="68.29"/><line class="cls-10" x1="511.13" y1="75.32" x2="537.35" y2="75.32"/><line class="cls-10" x1="511.13" y1="78.85" x2="537.35" y2="78.85"/><circle class="cls-11" cx="46.81" cy="54.54" r="43.81"/><line class="cls-12" x1="21.84" y1="32.28" x2="71.78" y2="32.28"/><line class="cls-12" x1="21.84" y1="40.62" x2="71.78" y2="40.62"/><line class="cls-12" x1="21.84" y1="48.92" x2="71.78" y2="48.92"/><line class="cls-12" x1="21.84" y1="57.22" x2="71.78" y2="57.22"/><line class="cls-12" x1="21.84" y1="65.57" x2="71.78" y2="65.57"/><line class="cls-12" x1="21.84" y1="73.87" x2="71.78" y2="73.87"/><circle class="cls-13" cx="761.54" cy="46.81" r="43.81"/><polyline class="cls-14" points="744.58 48.4 754.46 59.6 784.22 33.66"/><text class="cls-15" transform="translate(13.11 130.82)">planning</text><text class="cls-16" transform="translate(236.77 130.82)">d<tspan class="cls-17" x="10.15" y="0">a</tspan><tspan x="18.76" y="0">ta g</tspan><tspan class="cls-17" x="47.27" y="0">a</tspan><tspan x="55.87" y="0">the</tspan><tspan class="cls-18" x="80.84" y="0">r</tspan><tspan x="86.79" y="0">ing</tspan></text><text class="cls-19" transform="translate(497.09 130.82)">p<tspan class="cls-20" x="10.24" y="0">r</tspan><tspan x="15.95" y="0">odu</tspan><tspan class="cls-21" x="45.9" y="0">c</tspan><tspan x="54.2" y="0">tion</tspan></text><text class="cls-22" transform="translate(729.65 127.82)"><tspan class="cls-17">v</tspan><tspan x="8.59" y="0">alid</tspan><tspan class="cls-17" x="35.87" y="0">a</tspan><tspan class="cls-23" x="44.48" y="0">tion </tspan></text><text class="cls-16" transform="translate(259.44 182.82)"><tspan class="cls-20">r</tspan><tspan class="cls-23" x="5.71" y="0">esea</tspan><tspan class="cls-20" x="39.55" y="0">r</tspan><tspan x="45.25" y="0">ch</tspan></text><text/><text class="cls-19" transform="translate(513.22 181.82)">desi<tspan class="cls-24" x="30.51" y="0">g</tspan><tspan x="40.46" y="0">n</tspan></text><text class="cls-19" transform="translate(499.6 240.4)">3 ske<tspan class="cls-25" x="37.64" y="0">t</tspan><tspan x="43.49" y="0">ches</tspan></text><rect class="cls-26" x="245.3" y="160.23" width="94" height="31" rx="11.28"/><rect class="cls-27" x="491.44" y="162.23" width="94" height="31" rx="11.28"/><rect class="cls-27" x="475.64" y="220.23" width="125.61" height="31" rx="11.28"/><line class="cls-28" x1="538.44" y1="192.68" x2="538.44" y2="220.68"/><text class="cls-19" transform="translate(496.7 299.16)">l<tspan class="cls-29" x="4.25" y="0">o</tspan><tspan class="cls-20" x="14" y="0">v</tspan><tspan class="cls-23" x="22.48" y="0">e &amp; h</tspan><tspan class="cls-17" x="60.01" y="0">a</tspan><tspan class="cls-24" x="68.62" y="0">t</tspan><tspan x="74.46" y="0">e</tspan></text><text class="cls-19" transform="translate(460.67 358.06)">ske<tspan class="cls-24" x="24.59" y="0">t</tspan><tspan x="30.44" y="0">ches </tspan><tspan class="cls-30" x="68.45" y="0">w</tspan><tspan class="cls-31" x="81" y="0">.</tspan><tspan x="0" y="21.6">di</tspan><tspan class="cls-32" x="14.36" y="21.6">ff</tspan><tspan class="cls-23" x="24.62" y="21.6">e</tspan><tspan class="cls-20" x="33.64" y="21.6">r</tspan><tspan x="39.35" y="21.6">e</tspan><tspan class="cls-17" x="48.37" y="21.6">n</tspan><tspan class="cls-23" x="58.28" y="21.6">t perspe</tspan><tspan class="cls-21" x="119.59" y="21.6">c</tspan><tspan class="cls-23" x="127.89" y="21.6">ti</tspan><tspan class="cls-20" x="138.06" y="21.6">v</tspan><tspan x="146.54" y="21.6">e</tspan></text><text class="cls-19" transform="translate(507.63 437.72)">moc<tspan class="cls-33" x="32.96" y="0">k</tspan><tspan x="41.47" y="0">up</tspan></text><rect class="cls-27" x="482.29" y="275.21" width="112.31" height="34.78" rx="11.28"/><rect class="cls-27" x="450.44" y="339.99" width="176" height="49.22" rx="11.28"/><rect class="cls-27" x="489.79" y="417.85" width="97.3" height="31" rx="11.28"/><line class="cls-28" x1="538.44" y1="309.42" x2="538.44" y2="337.42"/><line class="cls-28" x1="538.44" y1="390.44" x2="538.44" y2="418.44"/><line class="cls-28" x1="538.44" y1="250.38" x2="538.44" y2="278.38"/><text class="cls-16" transform="translate(235.69 238.93)">b<tspan class="cls-34" x="10.24" y="0">r</tspan><tspan x="16.04" y="0">and</tspan></text><text class="cls-16" transform="translate(313.46 238.93)">persona</text><text class="cls-16" transform="translate(175.11 297.93)">fidget ma<tspan class="cls-18" x="72.11" y="0">r</tspan><tspan x="78.06" y="0">ket</tspan></text><text class="cls-35" transform="translate(324.88 300.25) scale(1.08 1)">s<tspan class="cls-36" x="6.63" y="0">c</tspan><tspan x="14.02" y="0">ena</tspan><tspan class="cls-37" x="39.75" y="0">r</tspan><tspan x="45.29" y="0">io</tspan></text><rect class="cls-26" x="227.69" y="219.87" width="59.39" height="29.34" rx="11.28"/><rect class="cls-26" x="304.08" y="219.87" width="85.61" height="31.34" rx="11.28"/><rect class="cls-26" x="161.69" y="277.87" width="126.39" height="34.34" rx="11.28"/><rect class="cls-26" x="306.08" y="277.87" width="96" height="31" rx="11.28"/><line class="cls-38" x1="274.58" y1="190.37" x2="274.58" y2="218.37"/><line class="cls-38" x1="312.2" y1="192.32" x2="312.2" y2="220.32"/><line class="cls-38" x1="277.39" y1="250.34" x2="277.39" y2="278.34"/><line class="cls-38" x1="313" y1="251.29" x2="313" y2="279.29"/><text class="cls-16" transform="translate(170.98 359.88)">fidget <tspan class="cls-24" x="48.42" y="0">c</tspan><tspan class="cls-31" x="56.38" y="0">o</tspan><tspan class="cls-17" x="66.26" y="0">n</tspan><tspan class="cls-24" x="76.18" y="0">t</tspan><tspan class="cls-39" x="82.02" y="0">e</tspan><tspan class="cls-40" x="90.99" y="0">x</tspan><tspan x="99.56" y="0">t</tspan></text><rect class="cls-26" x="162.56" y="339.81" width="126.39" height="34.34" rx="11.28"/><line class="cls-38" x1="278.26" y1="312.29" x2="278.26" y2="340.29"/><text class="cls-16" transform="translate(171.57 419.88)">fidget m<tspan class="cls-17" x="63.43" y="0">a</tspan><tspan class="cls-25" x="72.04" y="0">t</tspan><tspan class="cls-23" x="77.89" y="0">e</tspan><tspan class="cls-18" x="86.9" y="0">r</tspan><tspan x="92.86" y="0">ial</tspan></text><rect class="cls-26" x="163.15" y="399.81" width="126.39" height="34.34" rx="11.28"/><line class="cls-38" x1="278.85" y1="372.29" x2="278.85" y2="400.29"/></g></g></svg>