<svg xmlns="http://www.w3.org/2000/svg" xmlns:xlink="http://www.w3.org/1999/xlink" viewBox="0 0 307.89 295.84"><defs><style>.cls-1,.cls-27,.cls-29,.cls-30,.cls-31,.cls-33,.cls-34,.cls-37,.cls-8{fill:none;}.cls-2{isolation:isolate;}.cls-3{fill:#fff;stroke:#b2aec1;stroke-width:0.66px;}.cls-27,.cls-29,.cls-3,.cls-30,.cls-31,.cls-33,.cls-34,.cls-37,.cls-8{stroke-miterlimit:10;}.cls-4{fill:#9595d8;}.cls-5{font-size:5px;}.cls-10,.cls-5{fill:#6d6da0;}.cls-5,.cls-6,.cls-7{font-family:Ebrima-Bold, Ebrima;font-weight:700;}.cls-6{font-size:5.1px;}.cls-6,.cls-7{fill:#f4f4f4;}.cls-7{font-size:4.82px;}.cls-8{stroke:#f4f4f4;stroke-width:4.22px;}.cls-9{fill:#c1c1e5;}.cls-11{fill:#a09d9c;}.cls-12{fill:#756a66;}.cls-13{fill:#b6b6d8;}.cls-14{fill:#606063;}.cls-15{fill:#606093;}.cls-16{fill:#b9b9ba;}.cls-17{fill:#282724;}.cls-18{fill:#51412b;}.cls-19{fill:#c3c3c9;}.cls-20{fill:#adaddb;}.cls-21{fill:#a3a3d3;}.cls-22{fill:#564f4e;}.cls-23{fill:#bcbcbc;}.cls-24{fill:#636393;}.cls-25{fill:#6767a3;opacity:0.7;}.cls-26{fill:#bf33e2;}.cls-27,.cls-29{stroke:#51412b;}.cls-27{stroke-width:0.06px;}.cls-28{fill:#5b4a35;}.cls-29{stroke-width:0.09px;}.cls-30{stroke:#bcbcbc;stroke-width:0.46px;}.cls-31{stroke:#c1c1e5;stroke-width:1.31px;}.cls-32{fill:#e0dddc;}.cls-33{stroke:#847872;}.cls-33,.cls-34{stroke-width:0.07px;}.cls-34{stroke:#826731;}.cls-35{fill:#bcb8b7;}.cls-36{fill:#847872;}.cls-37{stroke:#a09d9c;stroke-width:0.26px;}.cls-38{mix-blend-mode:hard-light;}.cls-39{clip-path:url(#clip-path);}.cls-40{fill:#2b2b2b;}</style><clipPath id="clip-path" transform="translate(-19.81 -25.14)"><rect class="cls-1" x="67.31" y="52.23" width="0.62" height="1.91"/></clipPath></defs><title>uxmodel</title><g class="cls-2"><g id="Lager_4" data-name="Lager 4"><path class="cls-3" d="M296.46,94.43" transform="translate(-19.81 -25.14)"/></g><g id="DIAGRAM"><path class="cls-4" d="M166.18,85,87.24,222.17A2.2,2.2,0,0,0,89,225.51H248.62a2.2,2.2,0,0,0,1.76-3.36L169.7,85A2,2,0,0,0,166.18,85Z" transform="translate(-19.81 -25.14)"/><text class="cls-5" transform="translate(189.62 109.85)">Explorative design <tspan x="0" y="6">approach</tspan></text><text class="cls-6" transform="translate(204.31 194.88) scale(0.95 1)">Context </text><text class="cls-7" transform="translate(75.93 194.79)">Product</text><text class="cls-7" transform="translate(139.89 126.52)">Explore </text><text class="cls-7" transform="translate(172.94 153.43)">Define </text><text class="cls-7" transform="translate(140.86 182.18)">Create</text><text class="cls-7" transform="translate(106.27 153.43)">Validate</text><circle class="cls-8" cx="148.58" cy="152.81" r="17.06"/><text class="cls-5" transform="translate(131.52 221.73)">Interaction design</text><text class="cls-5" transform="translate(71.38 109.85)">User centered<tspan x="0" y="6">design</tspan></text><text class="cls-7" transform="translate(143.58 80.67)">User</text></g><g id="affinity"><ellipse class="cls-9" cx="81.81" cy="261.5" rx="14.66" ry="11.85"/><rect class="cls-10" x="77.85" y="263.79" width="5.34" height="4.77"/><rect class="cls-10" x="71.62" y="263.79" width="5.34" height="4.77"/><rect class="cls-10" x="74.61" y="258.45" width="5.34" height="4.77"/><rect class="cls-11" x="88.04" y="258.68" width="5.34" height="4.77"/><rect class="cls-11" x="81.81" y="258.68" width="5.34" height="4.77"/><rect class="cls-11" x="84.81" y="253.34" width="5.34" height="4.77"/><ellipse class="cls-11" cx="96.06" cy="273.35" rx="9.36" ry="8.36"/><rect class="cls-12" x="96.62" y="272.71" width="5.34" height="4.77"/><rect class="cls-12" x="90.39" y="272.71" width="5.34" height="4.77"/><rect class="cls-12" x="93.39" y="267.37" width="5.34" height="4.77"/><ellipse class="cls-12" cx="68.71" cy="276.91" rx="9.36" ry="8.36"/><rect class="cls-4" x="69.27" y="277.03" width="5.34" height="4.77"/><rect class="cls-4" x="63.04" y="277.03" width="5.34" height="4.77"/><rect class="cls-4" x="66.04" y="271.69" width="5.34" height="4.77"/></g><g id="interview"><ellipse class="cls-13" cx="230.91" cy="37.64" rx="2.79" ry="4.43"/><ellipse class="cls-9" cx="230.97" cy="37.36" rx="2.79" ry="4.43"/><line class="cls-14" x1="240.41" y1="72.4" x2="240.41" y2="72.38"/><path class="cls-14" d="M263.39,78.94H248.31V81.4a1.78,1.78,0,0,0,1.77,1.8h10.13V96a.14.14,0,0,0,.27,0L263,81.65A25.75,25.75,0,0,0,263.39,78.94Z" transform="translate(-19.81 -25.14)"/><line class="cls-12" x1="240.41" y1="72.2" x2="240.41" y2="72.18"/><path class="cls-12" d="M263.39,78.74H248.31V81.2a1.79,1.79,0,0,0,1.77,1.8h10.13V95.74a.14.14,0,0,0,.27,0L263,81.45A25.75,25.75,0,0,0,263.39,78.74Z" transform="translate(-19.81 -25.14)"/><polyline class="cls-15" points="230.26 48.34 232.55 48.34 238.46 48.34 238.46 47.68 232.4 47.2"/><path class="cls-10" d="M252.14,68l-3.54-.91a.24.24,0,0,0-.29.23V78.74h4.82Z" transform="translate(-19.81 -25.14)"/><polygon class="cls-15" points="232.32 49.66 231.49 43.59 229.85 43.59 230.18 50.8 232.48 50.8 238.38 50.8 238.38 50.15 232.32 49.66"/><line class="cls-16" x1="256.99" y1="72.4" x2="256.99" y2="72.38"/><path class="cls-16" d="M273.61,78.94H288.7V81.4a1.79,1.79,0,0,1-1.77,1.8H276.8V96a.14.14,0,0,1-.27,0L274,81.65C273.84,80.62,273.56,78.94,273.61,78.94Z" transform="translate(-19.81 -25.14)"/><rect class="cls-4" x="258.82" y="66.82" width="0.39" height="9.48" transform="translate(23.83 -114.27) rotate(21.28)"/><polygon class="cls-10" points="232.29 49.5 231.46 43.43 229.82 43.43 230.15 50.65 232.44 50.65 238.35 50.65 238.35 49.99 232.29 49.5"/><path class="cls-17" d="M253.67,60.61c0,1.72-1.42,2-3,2-.79,0-1.17,3.6-1.69,3.05s-1.51-.43-1.51-1.3-.53-3.62,0-4.18.48-2.46,1.28-2.46a8.75,8.75,0,0,0,1.45.2A3.14,3.14,0,0,1,253.67,60.61Z" transform="translate(-19.81 -25.14)"/><path class="cls-18" d="M253.47,60.48c0,1.72-1.42,2-3,2-.78,0-1.16,3.6-1.69,3s-1.5-.43-1.5-1.3-.53-3.61,0-4.18.48-2.46,1.28-2.46a8.75,8.75,0,0,0,1.45.2A3.14,3.14,0,0,1,253.47,60.48Z" transform="translate(-19.81 -25.14)"/><path class="cls-12" d="M250.44,58.93S249,61.68,248,62" transform="translate(-19.81 -25.14)"/><path class="cls-13" d="M283.57,63.23c0,2.13,1.33,3.12,2.78,3.86s2.79-1.73,2.79-3.86-1.25-3.87-2.79-3.87S283.57,61.09,283.57,63.23Z" transform="translate(-19.81 -25.14)"/><path class="cls-9" d="M283.45,63.07c0,2.13,1.33,3.12,2.78,3.86S289,65.2,289,63.07s-1.25-3.86-2.79-3.86S283.45,60.94,283.45,63.07Z" transform="translate(-19.81 -25.14)"/><line class="cls-19" x1="256.99" y1="72.2" x2="256.99" y2="72.18"/><path class="cls-19" d="M273.61,78.74H288.7V81.2a1.79,1.79,0,0,1-1.77,1.8H276.8V95.74a.14.14,0,0,1-.27,0L274,81.45C273.84,80.42,273.56,78.74,273.61,78.74Z" transform="translate(-19.81 -25.14)"/><path class="cls-20" d="M284.86,68l3.55-.91a.24.24,0,0,1,.29.23V78.74h-6.13Z" transform="translate(-19.81 -25.14)"/><polygon class="cls-21" points="265.23 49.63 266.06 43.56 267.7 43.56 267.37 51.76 265.08 51.76 259.17 52.42 259.17 51.76 265.23 49.63"/><polygon class="cls-20" points="265.11 49.5 265.94 43.43 267.58 43.43 267.25 51.63 264.95 51.63 259.05 52.28 259.05 51.63 265.11 49.5"/><path class="cls-11" d="M286,59.05a.75.75,0,0,0-.26.05c-.4.18-1.68.8-1.81,1.74s3.41,3.35,4.42,4a.68.68,0,0,0,.57.08h0a.67.67,0,0,0,.51-.59C289.61,63,289.75,58.91,286,59.05Z" transform="translate(-19.81 -25.14)"/><path class="cls-11" d="M288.76,65a13.27,13.27,0,0,0,1.67,4.82,11.92,11.92,0,0,1,1.42,3.68s-.19-8.09-2.56-8.71Z" transform="translate(-19.81 -25.14)"/><path class="cls-11" d="M284,60.71c-.13.4,1.14,4.28,4.44,4.41C288.4,65.12,285,62.46,284,60.71Z" transform="translate(-19.81 -25.14)"/><line class="cls-22" x1="265.35" y1="34.79" x2="269.22" y2="39.58"/><line class="cls-22" x1="266.84" y1="34.47" x2="269.58" y2="38.32"/><path class="cls-11" d="M278.77,63.6a3.06,3.06,0,0,0,2.34,1.82c.48.09-3.72,0-4.25,0a1.82,1.82,0,1,1,0-3.64C277.91,61.78,278.47,62.63,278.77,63.6Z" transform="translate(-19.81 -25.14)"/><path class="cls-12" d="M262.69,55.44a3.08,3.08,0,0,1-2.35,1.82c-.48.09,3.73,0,4.25,0a1.82,1.82,0,1,0,0-3.64C263.54,53.62,263,54.47,262.69,55.44Z" transform="translate(-19.81 -25.14)"/><path class="cls-11" d="M278.77,56.82a3.06,3.06,0,0,0,2.34,1.81c.48.1-3.72,0-4.25,0a1.82,1.82,0,1,1,0-3.63C277.91,55,278.47,55.84,278.77,56.82Z" transform="translate(-19.81 -25.14)"/><path class="cls-12" d="M263.13,63.27a3.06,3.06,0,0,1-2.34,1.81c-.48.1,3.72,0,4.25,0a1.82,1.82,0,1,0,0-3.63C264,61.45,263.43,62.29,263.13,63.27Z" transform="translate(-19.81 -25.14)"/></g><g id="workshop"><path class="cls-18" d="M304.59,198.85a4,4,0,1,1-8.07,0" transform="translate(-19.81 -25.14)"/><path class="cls-12" d="M297.89,233.09a4,4,0,1,1,8.07,0" transform="translate(-19.81 -25.14)"/><path class="cls-12" d="M278.16,209h7.91a0,0,0,0,1,0,0v0a2.93,2.93,0,0,1-2.93,2.93h-3a1.94,1.94,0,0,1-1.94-1.94v-1A0,0,0,0,1,278.16,209Z"/><polygon class="cls-12" points="273.23 185.83 264.54 186.62 264.83 183.61 273.23 184.1 273.23 185.83"/><polygon class="cls-12" points="273.96 198.4 265.28 199.18 265.28 196.12 273.96 196.66 273.96 198.4"/><polygon class="cls-12" points="290.39 185.17 299.07 185.95 299.07 182.89 290.39 183.44 290.39 185.17"/><polygon class="cls-12" points="290.09 197.63 298.78 198.42 298.78 195.36 290.09 195.9 290.09 197.63"/><polygon class="cls-12" points="287.35 200.06 286.57 208.75 289.63 208.75 289.08 200.06 287.35 200.06"/><rect class="cls-23" x="275.22" y="194.38" width="4.16" height="5.72"/><polygon class="cls-12" points="281.62 180.58 288.25 174.93 286.07 172.78 280.38 179.37 281.62 180.58"/><circle class="cls-18" cx="305.73" cy="170.59" r="2.16"/><path class="cls-12" d="M318,211.75a4,4,0,1,1,0,8.08" transform="translate(-19.81 -25.14)"/><rect class="cls-12" x="297.57" y="186.52" width="0.42" height="8.16"/><circle class="cls-12" cx="280.75" cy="169.86" r="2.16"/><path class="cls-18" d="M315.1,196.14a4,4,0,1,1,6.8,4.34" transform="translate(-19.81 -25.14)"/><ellipse class="cls-12" cx="282.01" cy="207.62" rx="4.33" ry="4.04"/><rect class="cls-24" x="269.62" y="180.24" width="25.85" height="22.79"/><rect class="cls-9" x="269" y="179.96" width="25.85" height="22.79"/><rect class="cls-12" x="296.65" y="182.94" width="3.94" height="15.57" rx="1.97"/><ellipse class="cls-12" cx="298.62" cy="190.73" rx="4.04" ry="4.33"/><rect class="cls-12" x="298.61" y="191.25" width="3.94" height="15.57" rx="1.97" transform="translate(81.74 474.47) rotate(-90)"/><ellipse class="cls-12" cx="280.77" cy="173.89" rx="4.33" ry="4.04"/><rect class="cls-23" x="284.49" y="182.23" width="4.16" height="5.72"/><rect class="cls-25" x="284.92" y="182.89" width="4.16" height="5.72"/><rect class="cls-25" x="305.38" y="208.8" width="4.16" height="5.72" transform="translate(262.66 -185.91) rotate(51.62)"/><rect class="cls-12" x="283.14" y="208.69" width="3.94" height="15.57" rx="1.97" transform="translate(550.41 407.82) rotate(180)"/><ellipse class="cls-12" cx="265.28" cy="191.34" rx="4.04" ry="4.33"/><rect class="cls-12" x="299.76" y="225.29" width="3.94" height="15.57" rx="1.97" transform="translate(48.85 509.67) rotate(-90)"/><rect class="cls-4" x="316.89" y="189.92" width="3.94" height="15.57" rx="1.97" transform="translate(-38.49 336.35) rotate(-57.68)"/><ellipse class="cls-4" cx="318.87" cy="197.7" rx="4.04" ry="4.33" transform="translate(-38.49 336.35) rotate(-57.68)"/><circle class="cls-18" cx="302.37" cy="169.98" r="2.16"/><path class="cls-12" d="M282.47,216.51a2.15,2.15,0,0,1-2.15,2.15c-1.19,0-2.94-1.41-2-2.15,1.13-.91.82-2.16,2-2.16A2.16,2.16,0,0,1,282.47,216.51Z" transform="translate(-19.81 -25.14)"/><rect class="cls-25" x="275.97" y="195.19" width="4.16" height="5.72"/></g><g id="persona"><rect class="cls-4" x="189.62" y="254.59" width="30.01" height="11.85"/><rect class="cls-4" x="189.62" y="269.77" width="30.01" height="11.97"/><rect class="cls-9" x="198.67" y="270.58" width="20.1" height="9.56"/><rect class="cls-9" x="198.46" y="255.66" width="20.1" height="9.56"/><rect class="cls-4" x="189.62" y="284.14" width="30.01" height="11.7"/><rect class="cls-9" x="198.46" y="285.02" width="20.1" height="9.56"/><circle class="cls-4" cx="200.03" cy="286.94" r="0.7"/><circle class="cls-4" cx="202.05" cy="286.94" r="0.7"/><circle class="cls-4" cx="204.02" cy="286.94" r="0.71"/><circle class="cls-20" cx="206.02" cy="286.98" r="0.71"/><circle class="cls-20" cx="208.07" cy="286.98" r="0.71"/><rect class="cls-4" x="219.11" y="314.6" width="1.31" height="1.31" transform="translate(-115.3 509.88) rotate(-90)"/><rect class="cls-4" x="201.35" y="289.46" width="1.31" height="1.31"/><rect class="cls-20" x="203.36" y="289.46" width="1.31" height="1.31"/><rect class="cls-20" x="205.37" y="289.46" width="1.31" height="1.31"/><rect class="cls-20" x="207.42" y="289.46" width="1.31" height="1.31"/><rect class="cls-4" x="218.93" y="317.36" width="1.31" height="1.31" transform="translate(-180.36 223.27) rotate(-45)"/><rect class="cls-4" x="221.16" y="317.36" width="1.31" height="1.31" transform="translate(270.03 -88.84) rotate(45)"/><rect class="cls-20" x="223.11" y="317.36" width="1.31" height="1.31" transform="translate(270.6 -90.22) rotate(45)"/><rect class="cls-20" x="225.17" y="317.36" width="1.31" height="1.31" transform="translate(271.21 -91.68) rotate(45)"/><rect class="cls-20" x="227.22" y="317.36" width="1.31" height="1.31" transform="translate(271.81 -93.13) rotate(45)"/><path class="cls-20" d="M213.74,318.47c-1,0-1.87-1.21-1.87-2.71" transform="translate(-19.81 -25.14)"/><rect class="cls-4" x="204.18" y="274.55" width="1.28" height="1.28"/><rect class="cls-4" x="206.19" y="274.54" width="1.31" height="1.31"/><rect class="cls-4" x="208.17" y="274.55" width="1.28" height="1.28"/><rect class="cls-4" x="219.82" y="302.41" width="1.28" height="1.28" transform="translate(-169.52 219.51) rotate(-45)"/><rect class="cls-4" x="222.01" y="302.41" width="1.28" height="1.28" transform="translate(259.7 -93.82) rotate(45)"/><rect class="cls-4" x="223.93" y="302.41" width="1.28" height="1.28" transform="translate(260.26 -95.17) rotate(45)"/><rect class="cls-4" x="225.96" y="302.41" width="1.28" height="1.28" transform="translate(260.85 -96.61) rotate(45)"/><rect class="cls-20" x="228.04" y="302.4" width="1.31" height="1.31" transform="translate(261.46 -98.09) rotate(45)"/><rect class="cls-12" x="190.51" y="285.02" width="7.39" height="9.56"/><ellipse class="cls-20" cx="193.94" cy="290.71" rx="1.88" ry="2.71"/><circle class="cls-26" cx="193.84" cy="292.12" r="0.26"/><path class="cls-18" d="M211.87,315.76c0-1.5.84-2.71,1.87-2.71s1.88,1.21,1.88,2.71" transform="translate(-19.81 -25.14)"/><path class="cls-20" d="M211.71,319.68,212,319a.34.34,0,0,1,.3-.21h2.72a.31.31,0,0,1,.26.14l.57.79Z" transform="translate(-19.81 -25.14)"/><ellipse class="cls-18" cx="193.99" cy="287.67" rx="1.11" ry="0.57"/><path class="cls-20" d="M212,305.28l.34-.73a.33.33,0,0,1,.3-.21h2.71a.34.34,0,0,1,.26.14l.58.8Z" transform="translate(-19.81 -25.14)"/><path class="cls-18" d="M212.12,299.75a23.51,23.51,0,0,0-.64,4.26" transform="translate(-19.81 -25.14)"/><path class="cls-27" d="M213.56,302.79s.45,1.22.91,0" transform="translate(-19.81 -25.14)"/><circle class="cls-20" cx="200.84" cy="272.24" r="0.7"/><circle class="cls-20" cx="202.82" cy="272.24" r="0.71"/><circle class="cls-20" cx="204.83" cy="272.24" r="0.71"/><circle class="cls-20" cx="206.84" cy="272.24" r="0.71"/><circle class="cls-20" cx="208.89" cy="272.24" r="0.71"/><rect class="cls-4" x="220" y="299.69" width="1.28" height="1.28" transform="translate(-99.49 495.84) rotate(-90)"/><rect class="cls-4" x="202.21" y="274.55" width="1.28" height="1.28"/><rect class="cls-20" x="191.54" y="260.16" width="0.89" height="1.56" rx="0.45"/><circle class="cls-4" cx="200.23" cy="256.98" r="0.7"/><circle class="cls-4" cx="202.25" cy="256.98" r="0.7"/><circle class="cls-4" cx="204.22" cy="256.98" r="0.7"/><circle class="cls-20" cx="206.23" cy="257.02" r="0.71"/><circle class="cls-20" cx="208.28" cy="257.02" r="0.71"/><rect class="cls-4" x="219.4" y="284.59" width="1.28" height="1.28" transform="translate(-85 480.14) rotate(-90)"/><rect class="cls-4" x="201.61" y="259.45" width="1.28" height="1.28"/><rect class="cls-20" x="203.57" y="259.51" width="1.31" height="1.31"/><rect class="cls-20" x="205.58" y="259.51" width="1.31" height="1.31"/><rect class="cls-20" x="207.63" y="259.51" width="1.31" height="1.31"/><rect class="cls-4" x="219.22" y="287.3" width="1.28" height="1.28" transform="translate(-159.02 214.66) rotate(-45)"/><rect class="cls-4" x="221.41" y="287.3" width="1.28" height="1.28" transform="translate(248.84 -97.82) rotate(45)"/><rect class="cls-4" x="223.33" y="287.3" width="1.28" height="1.28" transform="translate(249.4 -99.17) rotate(45)"/><rect class="cls-4" x="225.36" y="287.3" width="1.28" height="1.28" transform="translate(249.99 -100.61) rotate(45)"/><rect class="cls-20" x="227.43" y="287.41" width="1.31" height="1.31" transform="translate(250.69 -102.05) rotate(45)"/><path class="cls-18" d="M212.31,299.75a21.23,21.23,0,0,0-.6,4" transform="translate(-19.81 -25.14)"/><path class="cls-18" d="M194.19,273.49h0a2.24,2.24,0,0,1,2.24,2.24v.41a.19.19,0,0,1-.19.19H192.3a.19.19,0,0,1-.19-.19v-.57A2.09,2.09,0,0,1,194.19,273.49Z"/><rect class="cls-12" x="190.51" y="270.58" width="7.39" height="9.56"/><path class="cls-18" d="M194.19,273.47h0a2.24,2.24,0,0,1,2.24,2.24V280a0,0,0,0,1,0,0h-4.33a0,0,0,0,1,0,0v-4.46A2.08,2.08,0,0,1,194.19,273.47Z"/><rect class="cls-12" x="190.51" y="255.66" width="7.39" height="9.56"/><rect class="cls-20" x="195.68" y="275.36" width="0.89" height="1.08" rx="0.45"/><rect class="cls-20" x="191.81" y="275.36" width="0.89" height="1.08" rx="0.45"/><ellipse class="cls-20" cx="194.27" cy="276.3" rx="1.88" ry="2.71"/><ellipse class="cls-20" cx="194.46" cy="260.94" rx="2.23" ry="3.44"/><ellipse class="cls-18" cx="194.4" cy="259.46" rx="2.29" ry="1.06"/><path class="cls-28" d="M216.76,283.68c0,.53-1.16.56-2.38.56s-2.46.88-2.46.35,1.24-2.25,2.46-2.25S216.76,283.15,216.76,283.68Z" transform="translate(-19.81 -25.14)"/><path class="cls-29" d="M213.36,287.82a1.06,1.06,0,0,0,1.82,0" transform="translate(-19.81 -25.14)"/><rect class="cls-20" x="191.54" y="260.16" width="0.89" height="1.56" rx="0.45"/><rect class="cls-20" x="196.5" y="260.16" width="0.89" height="1.56" rx="0.45"/></g><g id="Prototype"><rect class="cls-30" x="0.79" y="138.82" width="20.58" height="11.2"/><rect class="cls-23" x="6.88" y="144.45" width="3.77" height="0.78"/><rect class="cls-23" x="11.13" y="144.45" width="3.77" height="0.78"/><rect class="cls-23" x="6.88" y="142.21" width="8.15" height="1.07"/><rect class="cls-23" x="6.88" y="140.67" width="8.15" height="1.07"/><rect class="cls-23" x="1.39" y="139.46" width="2.27" height="0.33"/><rect class="cls-23" x="18.55" y="139.46" width="2.27" height="0.33"/><rect class="cls-23" x="0.79" y="152.83" width="20.58" height="11.2"/><rect class="cls-20" x="6.88" y="158.16" width="3.77" height="0.78"/><rect class="cls-4" x="11.13" y="158.16" width="3.77" height="0.78"/><rect class="cls-28" x="6.88" y="156.23" width="8.15" height="1.07"/><rect class="cls-28" x="6.88" y="154.99" width="8.15" height="1.07"/><rect class="cls-28" x="1.09" y="153.17" width="2.27" height="0.33"/><rect class="cls-28" x="18.55" y="153.17" width="2.27" height="0.33"/><rect class="cls-22" y="166.28" width="20.58" height="11.2"/><rect class="cls-22" x="6.09" y="171.6" width="3.77" height="0.78"/><rect class="cls-22" x="10.34" y="171.6" width="3.77" height="0.78"/><rect class="cls-22" x="6.09" y="169.67" width="8.15" height="1.07"/><rect class="cls-22" x="6.09" y="168.44" width="8.15" height="1.07"/><rect class="cls-22" x="0.3" y="166.61" width="2.27" height="0.33"/><rect class="cls-22" x="17.76" y="166.61" width="2.27" height="0.33"/><polygon class="cls-22" points="10.18 172.11 9.96 172.76 10.18 172.76 10.03 173.16 10.37 172.63 10.1 172.63 10.18 172.11"/><polygon class="cls-22" points="5.9 172.11 5.68 172.76 5.9 172.76 5.75 173.16 6.09 172.63 5.82 172.63 5.9 172.11"/><polygon class="cls-22" points="17.69 166.61 17.46 167.25 17.69 167.25 17.54 167.65 17.88 167.13 17.6 167.13 17.69 166.61"/><rect class="cls-11" x="0.43" y="166.89" width="20.58" height="11.2"/><rect class="cls-11" x="6.53" y="172.22" width="3.77" height="0.78"/><rect class="cls-11" x="10.77" y="172.22" width="3.77" height="0.78"/><rect class="cls-11" x="6.53" y="170.28" width="8.15" height="1.07"/><rect class="cls-11" x="6.53" y="169.05" width="8.15" height="1.07"/><rect class="cls-11" x="0.73" y="167.22" width="2.27" height="0.33"/><rect class="cls-11" x="18.2" y="167.22" width="2.27" height="0.33"/><polygon class="cls-11" points="10.62 172.73 10.39 173.37 10.62 173.37 10.47 173.77 10.81 173.25 10.53 173.25 10.62 172.73"/><polygon class="cls-11" points="6.33 172.73 6.11 173.37 6.33 173.37 6.18 173.77 6.53 173.25 6.25 173.25 6.33 172.73"/><polygon class="cls-11" points="18.12 167.22 17.89 167.87 18.12 167.87 17.97 168.27 18.31 167.75 18.04 167.75 18.12 167.22"/><rect class="cls-23" x="1.57" y="167.42" width="20.58" height="11.2"/><rect class="cls-20" x="7.66" y="172.74" width="3.77" height="0.78"/><rect class="cls-4" x="11.91" y="172.74" width="3.77" height="0.78"/><rect class="cls-28" x="7.66" y="170.81" width="8.15" height="1.07"/><rect class="cls-28" x="7.66" y="169.58" width="8.15" height="1.07"/><rect class="cls-28" x="1.87" y="167.75" width="2.27" height="0.33"/><rect class="cls-28" x="19.33" y="167.75" width="2.27" height="0.33"/><polygon class="cls-12" points="11.75 173.25 11.53 173.9 11.75 173.9 11.6 174.29 11.94 173.77 11.67 173.77 11.75 173.25"/><polygon class="cls-12" points="7.47 173.25 7.25 173.9 7.47 173.9 7.32 174.29 7.66 173.77 7.39 173.77 7.47 173.25"/><polygon class="cls-12" points="19.26 167.75 19.03 168.39 19.26 168.39 19.11 168.79 19.45 168.27 19.17 168.27 19.26 167.75"/><path class="cls-9" d="M45.75,158.56A9.36,9.36,0,0,1,47.58,164a8.91,8.91,0,0,1-.45,2.89,12.58,12.58,0,0,1-1.23,2.66v-.21A18.82,18.82,0,0,1,47.63,173a16.13,16.13,0,0,1,.89,4,11.18,11.18,0,0,1-.44,4.06,9.26,9.26,0,0,1-2.14,3.49l0-.35a18.54,18.54,0,0,1,1.76,3.54,15.28,15.28,0,0,1,.93,3.84,10.26,10.26,0,0,1-.39,3.93,9.24,9.24,0,0,1-2.06,3.37l0-.12c0,2.53-.1,5.05-.15,7.58h0v-7.58h0a9,9,0,0,0,2-3.31,10,10,0,0,0,.36-3.84,15.26,15.26,0,0,0-1-3.76,17.88,17.88,0,0,0-1.76-3.46v0l0,0a9.65,9.65,0,0,0,2.06-3.38,10.93,10.93,0,0,0,.46-3.94,16.26,16.26,0,0,0-.84-3.9,19.2,19.2,0,0,0-1.68-3.62h0v0a11.9,11.9,0,0,0,1.23-2.6,9.43,9.43,0,0,0,.47-2.83,9.26,9.26,0,0,0-1.69-5.42Z" transform="translate(-19.81 -25.14)"/></g><g id="Planning"><rect class="cls-10" x="121.66" y="14.51" width="26.05" height="2.8"/><rect class="cls-18" x="126.47" y="9.4" width="26.05" height="2.8"/><rect class="cls-20" x="125.66" y="20.17" width="11.74" height="2.8"/><rect class="cls-20" x="150.37" y="20.17" width="11.74" height="2.8"/><rect class="cls-11" x="131.65" y="4.92" width="32.12" height="2.8"/><rect class="cls-22" x="121.76" width="50.23" height="2.8"/><rect class="cls-19" x="139.87" y="25.22" width="32.12" height="2.8"/></g><g id="UserTest"><path class="cls-11" d="M71.49,52.57a.92.92,0,1,1-.92-.92.92.92,0,0,1,.92.92" transform="translate(-19.81 -25.14)"/><path class="cls-11" d="M72.54,54.8a.53.53,0,0,1-.53.53.52.52,0,0,1-.52-.53.52.52,0,0,1,.52-.52.52.52,0,0,1,.53.52" transform="translate(-19.81 -25.14)"/><path class="cls-11" d="M69.39,50.34a1.06,1.06,0,1,1-1-1.05,1,1,0,0,1,1,1.05" transform="translate(-19.81 -25.14)"/><path class="cls-4" d="M75.82,75.56a1.58,1.58,0,1,1,3.15,0" transform="translate(-19.81 -25.14)"/><rect class="cls-4" x="56.02" y="50.55" width="3.15" height="0.53"/><line class="cls-31" x1="18.58" y1="51.73" x2="76.9" y2="51.73"/><path class="cls-32" d="M73.92,63.93a5.46,5.46,0,1,1-5.46-5.46,5.45,5.45,0,0,1,5.46,5.46" transform="translate(-19.81 -25.14)"/><path class="cls-12" d="M70.76,61H66.88a2,2,0,0,1-2-2V57.17a2,2,0,0,1,2-2h3.88a2,2,0,0,1,2,2v1.88a2,2,0,0,1-2,2" transform="translate(-19.81 -25.14)"/><rect class="cls-33" x="45.46" y="30.24" width="7" height="5.46" rx="1.85"/><rect class="cls-33" x="46.16" y="30.42" width="5.85" height="5.06" rx="1.71"/><line class="cls-33" x1="49.08" y1="30.42" x2="49.18" y2="35.49"/><path class="cls-32" d="M63.19,64.25v.93a1.76,1.76,0,0,1-.53-.15l-.58-.35c-.15-.1-.16-.37,0-.61s.39-.36.55-.26l.58.35s0,0,0,.09" transform="translate(-19.81 -25.14)"/><path class="cls-32" d="M73.86,64.07,73.8,65a2.73,2.73,0,0,0,.54-.11l.6-.31c.17-.08.2-.35.07-.61s-.37-.39-.54-.3l-.6.31s0,.05,0,.09" transform="translate(-19.81 -25.14)"/><path class="cls-34" d="M74.65,64.74a.48.48,0,0,1,.17.48.46.46,0,0,1-.55.33.45.45,0,0,1-.33-.55.41.41,0,0,1,.26-.31" transform="translate(-19.81 -25.14)"/><path class="cls-35" d="M74.1,63.93a5.45,5.45,0,0,1-5.46,5.45c-1.68,0,.34,0,2.19-.91,1.47-.71,2.72-2.12,2.72-3.45,0-3-9.09-6.55-4.91-6.55a5.45,5.45,0,0,1,5.46,5.46" transform="translate(-19.81 -25.14)"/><path class="cls-36" d="M74.1,63.12c0,.95-.36-.55-.91-.73a3.42,3.42,0,0,0-2-.18c-1.09.18-2.16-.68-3.27-.36-1.28.36-.19.54-3.28.72-1.22.07-1.63,2.32-1.63,1a5.41,5.41,0,0,1,5.45-5.36c3,0,5.64,1.95,5.64,4.91" transform="translate(-19.81 -25.14)"/><path class="cls-12" d="M68.64,58.21c3,0,5.13,1.72,5.38,4.67.08,1-.18-.36-.73-.54a3.42,3.42,0,0,0-2-.18c-1.09.18-2.15-.69-3.27-.37" transform="translate(-19.81 -25.14)"/><path class="cls-11" d="M65.41,49.88h-17a2.66,2.66,0,1,1,0-5.32h17a2.66,2.66,0,1,1,0,5.32" transform="translate(-19.81 -25.14)"/><line class="cls-37" x1="35.33" y1="38.43" x2="36.87" y2="35.49"/><line class="cls-11" x1="36.33" y1="38.56" x2="37.54" y2="36.23"/><path class="cls-10" d="M74.61,76.21H57.86a.42.42,0,0,1-.43-.42V65.08a.43.43,0,0,1,.43-.43H74.61a.42.42,0,0,1,.42.43V75.79a.42.42,0,0,1-.42.42" transform="translate(-19.81 -25.14)"/><path class="cls-4" d="M74.61,64.65a.42.42,0,0,1,.42.43V75.79a.42.42,0,0,1-.42.42H57.86a.42.42,0,0,1-.43-.42V69.38Z" transform="translate(-19.81 -25.14)"/><line class="cls-37" x1="36.33" y1="38.56" x2="37.54" y2="36.23"/><line class="cls-11" x1="34.37" y1="38.22" x2="36.15" y2="34.82"/><line class="cls-37" x1="34.37" y1="38.22" x2="36.15" y2="34.82"/><line class="cls-11" x1="32.38" y1="37.95" x2="34.79" y2="33.33"/><line class="cls-37" x1="32.38" y1="37.95" x2="34.79" y2="33.33"/><line class="cls-11" x1="33.35" y1="38.12" x2="35.49" y2="34.04"/><line class="cls-37" x1="33.35" y1="38.12" x2="35.49" y2="34.04"/><line class="cls-11" x1="31.42" y1="37.75" x2="34.08" y2="32.66"/><line class="cls-37" x1="31.42" y1="37.75" x2="34.08" y2="32.66"/><g class="cls-38"><g class="cls-39"><path class="cls-40" d="M67.32,54.14a7.17,7.17,0,0,1,.46-.75l0,.13-.47-.36,0-.12a5.78,5.78,0,0,1,.51-.81,5.42,5.42,0,0,1-.35.9l0-.12.46.36,0,.13a6.15,6.15,0,0,1-.61.64" transform="translate(-19.81 -25.14)"/></g></g><line class="cls-37" x1="58.96" y1="35.11" x2="60.31" y2="38.14"/><line class="cls-11" x1="58.24" y1="35.81" x2="59.31" y2="38.21"/><line class="cls-37" x1="58.24" y1="35.81" x2="59.31" y2="38.21"/><line class="cls-11" x1="59.72" y1="34.49" x2="61.28" y2="37.99"/><line class="cls-37" x1="59.72" y1="34.49" x2="61.28" y2="37.99"/><line class="cls-11" x1="61.17" y1="33.09" x2="63.29" y2="37.85"/><line class="cls-37" x1="61.17" y1="33.09" x2="63.29" y2="37.85"/><line class="cls-11" x1="60.43" y1="33.75" x2="62.3" y2="37.96"/><line class="cls-37" x1="60.43" y1="33.75" x2="62.3" y2="37.96"/><line class="cls-11" x1="61.93" y1="32.47" x2="64.26" y2="37.71"/><line class="cls-37" x1="61.93" y1="32.47" x2="64.26" y2="37.71"/><line class="cls-11" x1="35.33" y1="38.43" x2="36.87" y2="35.49"/><path class="cls-40" d="M76.42,59.81a6.29,6.29,0,0,1,.52-.72v.13c-.15-.12-.29-.25-.44-.39l-.05-.06,0-.06a5.27,5.27,0,0,1,.58-.76,5.7,5.7,0,0,1-.42.86l0-.12.43.4.07.06-.06.07a6.17,6.17,0,0,1-.66.59" transform="translate(-19.81 -25.14)"/><line class="cls-11" x1="58.96" y1="35.11" x2="60.31" y2="38.14"/></g></g></svg>